<mxfile host="Electron" modified="2024-01-02T04:38:40.425Z" agent="Mozilla/5.0 (Windows NT 10.0; Win64; x64) AppleWebKit/537.36 (KHTML, like Gecko) draw.io/22.1.16 Chrome/120.0.6099.109 Electron/28.1.0 Safari/537.36" etag="Hquh9Nel1p2aX9KUwON-" version="22.1.16" type="device">
  <diagram name="第 1 页" id="g9Po3WrtdbBMTvvizMly">
    <mxGraphModel dx="1185" dy="683" grid="1" gridSize="10" guides="1" tooltips="1" connect="1" arrows="1" fold="1" page="1" pageScale="1" pageWidth="827" pageHeight="1169" math="0" shadow="0">
      <root>
        <mxCell id="0" />
        <mxCell id="1" parent="0" />
        <mxCell id="Ie_DtONxVz18idNpnxOm-11" value="" style="group;fontFamily=Times New Roman;" parent="1" vertex="1" connectable="0">
          <mxGeometry x="59" y="260" width="710" height="390" as="geometry" />
        </mxCell>
        <mxCell id="Ie_DtONxVz18idNpnxOm-1" value="" style="rounded=0;whiteSpace=wrap;html=1;fillColor=none;fontFamily=Times New Roman;" parent="Ie_DtONxVz18idNpnxOm-11" vertex="1">
          <mxGeometry width="710" height="390" as="geometry" />
        </mxCell>
        <mxCell id="Ie_DtONxVz18idNpnxOm-10" value="" style="group;fontFamily=Times New Roman;" parent="Ie_DtONxVz18idNpnxOm-11" vertex="1" connectable="0">
          <mxGeometry x="364.1025641025641" y="50" width="309.4871794871795" height="300" as="geometry" />
        </mxCell>
        <mxCell id="Ie_DtONxVz18idNpnxOm-2" value="" style="rounded=0;whiteSpace=wrap;html=1;fillColor=none;fontFamily=Times New Roman;" parent="Ie_DtONxVz18idNpnxOm-10" vertex="1">
          <mxGeometry x="-9.102564102564104" width="318.58974358974365" height="300" as="geometry" />
        </mxCell>
        <mxCell id="Ie_DtONxVz18idNpnxOm-9" value="Trusted" style="text;html=1;strokeColor=none;fillColor=none;align=center;verticalAlign=middle;whiteSpace=wrap;rounded=0;fontFamily=Times New Roman;" parent="Ie_DtONxVz18idNpnxOm-10" vertex="1">
          <mxGeometry x="-9.1" width="45.51" height="20" as="geometry" />
        </mxCell>
        <mxCell id="Ie_DtONxVz18idNpnxOm-12" value="Crypto Libs" style="rounded=0;whiteSpace=wrap;html=1;fillColor=none;fontFamily=Times New Roman;" parent="Ie_DtONxVz18idNpnxOm-10" vertex="1">
          <mxGeometry x="209.3589743589744" y="220" width="72.82051282051283" height="30" as="geometry" />
        </mxCell>
        <mxCell id="Ie_DtONxVz18idNpnxOm-13" value="KeyMgr" style="rounded=0;whiteSpace=wrap;html=1;fillColor=none;fontFamily=Times New Roman;" parent="Ie_DtONxVz18idNpnxOm-10" vertex="1">
          <mxGeometry x="209.3589743589744" y="100" width="72.82051282051283" height="30" as="geometry" />
        </mxCell>
        <mxCell id="Ie_DtONxVz18idNpnxOm-19" value="Model &amp;amp; Algorithms" style="rounded=0;whiteSpace=wrap;html=1;fillColor=none;fontFamily=Times New Roman;" parent="Ie_DtONxVz18idNpnxOm-10" vertex="1">
          <mxGeometry x="109.23076923076924" y="100" width="72.82051282051283" height="30" as="geometry" />
        </mxCell>
        <mxCell id="Ie_DtONxVz18idNpnxOm-26" value="HPDA" style="rounded=0;whiteSpace=wrap;html=1;fillColor=none;fontFamily=Times New Roman;" parent="Ie_DtONxVz18idNpnxOm-10" vertex="1">
          <mxGeometry x="109.23076923076924" y="220" width="72.82051282051283" height="30" as="geometry" />
        </mxCell>
        <mxCell id="Ie_DtONxVz18idNpnxOm-27" value="YPC runtime (stbox)" style="rounded=0;whiteSpace=wrap;html=1;fillColor=none;fontFamily=Times New Roman;" parent="Ie_DtONxVz18idNpnxOm-10" vertex="1">
          <mxGeometry x="9.102564102564104" y="220" width="72.82051282051283" height="30" as="geometry" />
        </mxCell>
        <mxCell id="jW3hcSv9f98j4fb-WCUA-1" value="" style="endArrow=classic;html=1;rounded=0;exitX=0.5;exitY=1;exitDx=0;exitDy=0;entryX=0.5;entryY=0;entryDx=0;entryDy=0;" edge="1" parent="Ie_DtONxVz18idNpnxOm-10" source="Ie_DtONxVz18idNpnxOm-13" target="Ie_DtONxVz18idNpnxOm-12">
          <mxGeometry width="50" height="50" relative="1" as="geometry">
            <mxPoint x="409.61538461538464" y="10" as="sourcePoint" />
            <mxPoint x="455.1282051282052" y="-40" as="targetPoint" />
          </mxGeometry>
        </mxCell>
        <mxCell id="jW3hcSv9f98j4fb-WCUA-2" value="" style="endArrow=classic;html=1;rounded=0;exitX=0.5;exitY=1;exitDx=0;exitDy=0;entryX=0.5;entryY=0;entryDx=0;entryDy=0;" edge="1" parent="Ie_DtONxVz18idNpnxOm-10" source="Ie_DtONxVz18idNpnxOm-19" target="Ie_DtONxVz18idNpnxOm-26">
          <mxGeometry width="50" height="50" relative="1" as="geometry">
            <mxPoint x="145.37705128205133" y="130" as="sourcePoint" />
            <mxPoint x="145.37705128205133" y="220" as="targetPoint" />
          </mxGeometry>
        </mxCell>
        <mxCell id="jW3hcSv9f98j4fb-WCUA-8" value="" style="endArrow=none;dashed=1;html=1;rounded=0;startArrow=classicThin;startFill=1;entryX=0.5;entryY=0;entryDx=0;entryDy=0;exitX=0.25;exitY=1;exitDx=0;exitDy=0;" edge="1" parent="Ie_DtONxVz18idNpnxOm-10" source="Ie_DtONxVz18idNpnxOm-19" target="Ie_DtONxVz18idNpnxOm-27">
          <mxGeometry width="50" height="50" relative="1" as="geometry">
            <mxPoint x="-9.102564102564104" y="-70" as="sourcePoint" />
            <mxPoint x="109.23076923076924" y="-150" as="targetPoint" />
          </mxGeometry>
        </mxCell>
        <mxCell id="jW3hcSv9f98j4fb-WCUA-9" value="" style="endArrow=none;dashed=1;html=1;rounded=0;startArrow=classicThin;startFill=1;entryX=0.5;entryY=0;entryDx=0;entryDy=0;exitX=0;exitY=0.75;exitDx=0;exitDy=0;" edge="1" parent="Ie_DtONxVz18idNpnxOm-10" source="Ie_DtONxVz18idNpnxOm-13" target="Ie_DtONxVz18idNpnxOm-27">
          <mxGeometry width="50" height="50" relative="1" as="geometry">
            <mxPoint x="-109.23076923076924" y="-70" as="sourcePoint" />
            <mxPoint x="9.102564102564104" y="-150" as="targetPoint" />
          </mxGeometry>
        </mxCell>
        <mxCell id="Ie_DtONxVz18idNpnxOm-7" value="Untrusted" style="text;html=1;strokeColor=none;fillColor=none;align=center;verticalAlign=middle;whiteSpace=wrap;rounded=0;fontFamily=Times New Roman;" parent="Ie_DtONxVz18idNpnxOm-11" vertex="1">
          <mxGeometry width="54.62" height="20" as="geometry" />
        </mxCell>
        <mxCell id="Ie_DtONxVz18idNpnxOm-5" value="Crypto Libs" style="rounded=0;whiteSpace=wrap;html=1;fillColor=none;fontFamily=Times New Roman;" parent="Ie_DtONxVz18idNpnxOm-11" vertex="1">
          <mxGeometry x="218.46153846153845" y="270" width="72.82051282051282" height="30" as="geometry" />
        </mxCell>
        <mxCell id="jW3hcSv9f98j4fb-WCUA-6" value="" style="endArrow=classic;html=1;rounded=0;exitX=0.5;exitY=1;exitDx=0;exitDy=0;" edge="1" parent="Ie_DtONxVz18idNpnxOm-11" source="Ie_DtONxVz18idNpnxOm-6">
          <mxGeometry width="50" height="50" relative="1" as="geometry">
            <mxPoint x="254.6078205128205" y="180" as="sourcePoint" />
            <mxPoint x="254.87179487179486" y="270" as="targetPoint" />
          </mxGeometry>
        </mxCell>
        <mxCell id="Ie_DtONxVz18idNpnxOm-3" value="YPC Toolkit" style="rounded=0;whiteSpace=wrap;html=1;fillColor=none;fontFamily=Times New Roman;" parent="1" vertex="1">
          <mxGeometry x="89" y="410" width="80" height="30" as="geometry" />
        </mxCell>
        <mxCell id="Ie_DtONxVz18idNpnxOm-4" value="YPC runtime (SDK)" style="rounded=0;whiteSpace=wrap;html=1;fillColor=none;fontFamily=Times New Roman;" parent="1" vertex="1">
          <mxGeometry x="89" y="530" width="80" height="30" as="geometry" />
        </mxCell>
        <mxCell id="Ie_DtONxVz18idNpnxOm-6" value="KeyMgrTools&lt;br&gt;(dskey)" style="rounded=0;whiteSpace=wrap;html=1;fillColor=none;fontFamily=Times New Roman;" parent="1" vertex="1">
          <mxGeometry x="229" y="410" width="80" height="30" as="geometry" />
        </mxCell>
        <mxCell id="jW3hcSv9f98j4fb-WCUA-4" value="" style="endArrow=classic;html=1;rounded=0;exitX=0.5;exitY=1;exitDx=0;exitDy=0;entryX=0.5;entryY=0;entryDx=0;entryDy=0;" edge="1" parent="1" source="Ie_DtONxVz18idNpnxOm-3" target="Ie_DtONxVz18idNpnxOm-4">
          <mxGeometry width="50" height="50" relative="1" as="geometry">
            <mxPoint x="119" y="440" as="sourcePoint" />
            <mxPoint x="119" y="530" as="targetPoint" />
          </mxGeometry>
        </mxCell>
        <mxCell id="jW3hcSv9f98j4fb-WCUA-10" value="" style="curved=1;endArrow=classic;html=1;rounded=0;entryX=0.5;entryY=1;entryDx=0;entryDy=0;exitX=0.5;exitY=1;exitDx=0;exitDy=0;dashed=1;" edge="1" parent="1" source="Ie_DtONxVz18idNpnxOm-4" target="Ie_DtONxVz18idNpnxOm-27">
          <mxGeometry width="50" height="50" relative="1" as="geometry">
            <mxPoint x="419" y="740" as="sourcePoint" />
            <mxPoint x="469" y="690" as="targetPoint" />
            <Array as="points">
              <mxPoint x="279" y="690" />
            </Array>
          </mxGeometry>
        </mxCell>
        <mxCell id="jW3hcSv9f98j4fb-WCUA-11" value="" style="curved=1;endArrow=classic;html=1;rounded=0;entryX=0.25;entryY=0;entryDx=0;entryDy=0;exitX=0.5;exitY=0;exitDx=0;exitDy=0;dashed=1;" edge="1" parent="1" source="Ie_DtONxVz18idNpnxOm-6" target="Ie_DtONxVz18idNpnxOm-13">
          <mxGeometry width="50" height="50" relative="1" as="geometry">
            <mxPoint x="323" y="360" as="sourcePoint" />
            <mxPoint x="373" y="310" as="targetPoint" />
            <Array as="points">
              <mxPoint x="439" y="270" />
            </Array>
          </mxGeometry>
        </mxCell>
      </root>
    </mxGraphModel>
  </diagram>
</mxfile>
